<svg xmlns="http://www.w3.org/2000/svg" viewBox="0 0 512 512" role="img" aria-label="ControlGrama"><defs><linearGradient id="g" x1="70" y1="40" x2="440" y2="470" gradientUnits="userSpaceOnUse"><stop stop-color="#B8FF38"/><stop offset=".48" stop-color="#42E53C"/><stop offset="1" stop-color="#069447"/></linearGradient><filter id="glow" x="-30%" y="-30%" width="160%" height="160%"><feGaussianBlur stdDeviation="10" result="b"/><feMerge><feMergeNode in="b"/><feMergeNode in="SourceGraphic"/></feMerge></filter></defs><rect x="10" y="10" width="492" height="492" rx="108" fill="#030706" stroke="#39FF4B" stroke-width="8"/><rect x="28" y="28" width="456" height="456" rx="92" fill="none" stroke="#123A22" stroke-width="2"/><path d="M377 122C332 83 270 65 208 76C123 91 67 159 65 244C63 315 99 376 157 414L198 364C158 338 135 294 135 244C135 181 186 130 249 130C279 130 307 140 329 159L291 197H421L421 67Z" fill="url(#g)" filter="url(#glow)"/><path d="M142 252L224 334L420 138V215L224 411L142 329Z" fill="url(#g)" filter="url(#glow)"/><path d="M202 244V190L232 160V272Z" fill="#F7FAF8"/><path d="M252 292V144L282 114V321Z" fill="#F7FAF8"/><path d="M302 335V95L332 65V365Z" fill="#F7FAF8"/><path d="M112 371C168 397 224 410 286 410C341 410 389 397 430 374C394 426 341 451 279 451C215 451 156 426 112 389Z" fill="url(#g)"/><path d="M105 438C157 466 215 478 280 478C344 478 402 463 447 437" fill="none" stroke="#1D6B3A" stroke-width="5" stroke-linecap="round"/></svg>