<svg xmlns="http://www.w3.org/2000/svg" viewBox="0 0 1200 560" role="img" aria-labelledby="title desc">
<title id="title">ControlGrama</title>
<desc id="desc">Logo ControlGrama</desc>
<defs>
  <linearGradient id="g" x1="0" y1="0" x2="1" y2="1">
    <stop offset="0" stop-color="#B8FF38"/>
    <stop offset=".48" stop-color="#42E53C"/>
    <stop offset="1" stop-color="#078F47"/>
  </linearGradient>
</defs>
<g transform="translate(440 42)">
  <path d="M377 122C332 83 270 65 208 76C123 91 67 159 65 244C63 315 99 376 157 414L198 364C158 338 135 294 135 244C135 181 186 130 249 130C279 130 307 140 329 159L291 197H421V67Z" fill="url(#g)"/>
  <path d="M142 252L224 334L420 138V215L224 411L142 329Z" fill="url(#g)"/>
  <path d="M202 244V190L232 160V272Z" fill="#0F4D2C"/>
  <path d="M252 292V144L282 114V321Z" fill="#0F4D2C"/>
  <path d="M302 335V95L332 65V365Z" fill="#0F4D2C"/>
  <path d="M112 371C168 397 224 410 286 410C341 410 389 397 430 374C394 426 341 451 279 451C215 451 156 426 112 389Z" fill="url(#g)"/>
</g>
<text x="600" y="385" text-anchor="middle" font-family="Arial,Helvetica,sans-serif" font-size="92" font-weight="700" letter-spacing="-3">
  <tspan fill="#12372A">Control</tspan><tspan fill="#32C943">Grama</tspan>
</text>
<text x="600" y="447" text-anchor="middle" font-family="Arial,Helvetica,sans-serif" font-size="24" font-weight="600" letter-spacing="7" fill="#5B756A">
  GESTÃO <tspan fill="#32C943">•</tspan> EQUIPE <tspan fill="#32C943">•</tspan> RESULTADOS
</text>
</svg>